The.Specialist.1994.BRrip.720p.Dual.Audio.Eng-Hindi~MSBHATTI

IMDB:- http://www.imdb.com/title/tt0111255/

PLOT:- A woman entices a bomb expert she's involved with into destroying the mafia that killed her family.

Director: Luis Llosa
Writers: John Shirley (Specialist novels) (suggestion), Alexandra Seros
Stars: Sylvester Stallone, Sharon Stone and James Woods 

INFO:-
General
Complete name                    : The.Specialist.1994.BRrip.720p.Dual.Audio.Eng-Hindi~MSBHATTI
Format                           : Matroska
File size                        : 2.57 GiB
Duration                         : 1h 45mn
Overall bit rate                 : 3 491 Kbps
Encoded date                     : UTC 2011-11-19 18:26:41
Writing application              : mkvmerge v3.3.0 ('Language') built on Mar 24 2010 14:59:24
Writing library                  : libebml v0.8.0 + libmatroska v0.9.0

Video
ID                               : 1
Format                           : AVC
Format/Info                      : Advanced Video Codec
Format profile                   : High@L4.1
Format settings, CABAC           : Yes
Format settings, ReFrames        : 4 frames
Codec ID                         : V_MPEG4/ISO/AVC
Duration                         : 1h 45mn
Bit rate mode                    : Variable
Bit rate                         : 2 656 Kbps
Maximum bit rate                 : 40.0 Mbps
Width                            : 1 280 pixels
Height                           : 720 pixels
Display aspect ratio             : 16:9
Frame rate                       : 25.000 fps
Original frame rate              : 23.976 fps
Color space                      : YUV
Chroma subsampling               : 4:2:0
Bit depth                        : 8 bits
Scan type                        : Progressive
Bits/(Pixel*Frame)               : 0.115
Stream size                      : 2.00 GiB (78%)
Writing library                  : x264 core 98 r1649 20cbe10
Encoding settings                : cabac=1 / ref=5 / deblock=1:-2:-2 / analyse=0x3:0x113 / me=umh / subme=8 / psy=1 / psy_rd=1.00:0.15 / mixed_ref=1 / me_range=32 / chroma_me=1 / trellis=1 / 8x8dct=1 / cqm=0 / deadzone=21,11 / fast_pskip=1 / chroma_qp_offset=-3 / threads=12 / sliced_threads=0 / slices=4 / nr=0 / decimate=1 / interlaced=0 / constrained_intra=0 / bframes=6 / b_pyramid=1 / b_adapt=1 / b_bias=0 / direct=3 / weightb=1 / weightp=0 / keyint=24 / keyint_min=2 / scenecut=40 / intra_refresh=0 / rc_lookahead=24 / rc=2pass / mbtree=1 / bitrate=2656 / ratetol=2.0 / qcomp=0.60 / qpmin=10 / qpmax=51 / qpstep=4 / cplxblur=20.0 / qblur=0.5 / vbv_maxrate=40000 / vbv_bufsize=30000 / ip_ratio=1.40 / aq=1:1.20 / nal_hrd=vbr
Language                         : English
Color primaries                  : BT.709-5, BT.1361, IEC 61966-2-4, SMPTE RP177
Transfer characteristics         : BT.709-5, BT.1361
Matrix coefficients              : BT.709-5, BT.1361, IEC 61966-2-4 709, SMPTE RP177

Audio #1
ID                               : 2
Format                           : AC-3
Format/Info                      : Audio Coding 3
Mode extension                   : CM (complete main)
Codec ID                         : A_AC3
Duration                         : 1h 45mn
Bit rate mode                    : Constant
Bit rate                         : 448 Kbps
Channel(s)                       : 6 channels
Channel positions                : Front: L C R, Side: L R, LFE
Sampling rate                    : 48.0 KHz
Bit depth                        : 16 bits
Compression mode                 : Lossy
Stream size                      : 338 MiB (13%)
Title                            : MSBHATTI
Language                         : English

Audio #2
ID                               : 4
Format                           : MPEG Audio
Format version                   : Version 1
Format profile                   : Layer 3
Codec ID                         : A_MPEG/L3
Codec ID/Hint                    : MP3
Duration                         : 1h 45mn
Bit rate mode                    : Constant
Bit rate                         : 256 Kbps
Channel(s)                       : 2 channels
Sampling rate                    : 48.0 KHz
Compression mode                 : Lossy
Stream size                      : 193 MiB (7%)
Title                            : MSBHATTI
Language                         : Hindi

Text
ID                               : 3
Format                           : UTF-8
Codec ID                         : S_TEXT/UTF8
Codec ID/Info                    : UTF-8 Plain Text
Title                            : MSBHATTI
Language                         : English

Screenshots:-
[IMG]http://i.imgur.com/4Eqmw.jpg[/IMG]
[IMG]http://i.imgur.com/jyPQP.jpg[/IMG]
[IMG]http://i.imgur.com/204QE.jpg[/IMG]
[IMG]http://i.imgur.com/nBw0i.jpg[/IMG]
[IMG]http://i.imgur.com/UOj5h.jpg[/IMG]
[IMG]http://i.imgur.com/dlfcQ.jpg[/IMG]

NOTE:- IF U LIKE MY WORK SO COMMENT PLZ

Regards

MSBHATTI